#!OML:ASF F:\VICON\USERDATA\INSTALL\rory3\rory3.ASF
:FULLY-SPECIFIED
:DEGREES
137
root -1.00354 17.936 8.22344 189.405 15.0167 -179.205
lowerback 36.161 -2.59186 -1.36319
upperback 6.08247 -1.63563 2.89175
thorax -11.1899 0.0213261 4.3574
lowerneck -13.0704 2.60403 1.68294
upperneck 20.9854 3.94435 -0.623237
head 8.75429 2.10171 -0.0169399
rclavicle 1.37161e-014 2.60408e-014
rhumerus -26.7188 7.43573 -83.5552
rradius 56.6961
rwrist 6.12759
rhand -15.3565 4.1662
rfingers 7.12502
rthumb 10.8209 -25.535
lclavicle 1.37161e-014 2.60408e-014
lhumerus 0.826785 -7.34261 88.5566
lradius 39.3036
lwrist -33.7029
lhand -27.8131 69.0075
lfingers 7.12502
lthumb -1.20543 -98.9838
rfemur -30.8094 6.49617 20.381
rtibia 39.281
rfoot -14.752 -1.37707
rtoes 8.18598
lfemur -30.9882 2.97392 -15.3586
ltibia 46.1086
lfoot -11.4202 15.302
ltoes -11.1725
138
root -0.996052 17.9252 8.22995 189.33 15.211 -179.249
lowerback 36.5989 -2.55748 -1.5223
upperback 6.04058 -1.6463 2.83997
thorax -11.394 0.0301504 4.39803
lowerneck -13.2618 2.5443 1.77478
upperneck 20.9336 3.79549 -0.51427
head 8.76965 2.04476 -0.0105154
rclavicle 1.69961e-014 1.40143e-014
rhumerus -25.7943 7.75596 -84.106
rradius 56.5783
rwrist 6.4248
rhand -15.3018 5.03052
rfingers 7.12502
rthumb 10.8737 -24.668
lclavicle 1.69961e-014 1.40143e-014
lhumerus 1.46214 -8.12791 88.4978
lradius 36.9876
lwrist -33.4761
lhand -30.0953 69.4909
lfingers 7.12502
lthumb -3.40948 -99.4433
rfemur -30.9772 6.64487 20.3693
rtibia 39.6553
rfoot -14.8732 -1.3801
rtoes 8.12483
lfemur -31.7212 3.23123 -15.5107
ltibia 47.33
lfoot -10.6125 15.3323
ltoes -7.60838
139
root -0.992273 17.9053 8.23578 189.437 15.3689 -178.999
lowerback 36.684 -2.72698 -1.44198
upperback 6.11695 -1.80634 2.8751
thorax -11.3273 -0.0401957 4.45717
lowerneck -12.8515 2.772 2.06004
upperneck 20.1663 4.10562 -1.01503
head 8.45537 2.14902 -0.206899
rclavicle -1.69961e-014 -2.0773e-014
rhumerus -24.6574 8.6194 -84.7226
rradius 56.4715
rwrist 6.416
rhand -15.2737 5.62513
rfingers 7.12502
rthumb 10.9007 -24.0719
lclavicle -1.69961e-014 -2.0773e-014
lhumerus 1.45375 -7.16661 88.6055
lradius 36.6934
lwrist -33.6209
lhand -27.3178 69.7717
lfingers 7.12502
lthumb -0.726998 -99.7503
rfemur -31.1485 6.73413 20.6637
rtibia 39.8278
rfoot -14.8863 -1.33825
rtoes 8.31424
lfemur -32.5386 3.7006 -15.3779
ltibia 48.4496
lfoot -10.3829 15.1701
ltoes -5.33364
140
root -0.990651 17.8774 8.24124 189.739 15.5 -178.813
lowerback 36.383 -2.88085 -1.32531
upperback 6.22958 -1.95456 2.89028
thorax -11.0804 -0.117252 4.46284
lowerneck -13.0439 2.84773 1.94722
upperneck 20.1166 4.22041 -1.04164
head 8.47362 2.18491 -0.18223
rclavicle -6.58971e-014 1.38652e-014
rhumerus -23.4458 9.35781 -85.3679
rradius 56.3808
rwrist 6.65018
rhand -15.1755 5.9293
rfingers 7.12502
rthumb 10.9955 -23.7627
lclavicle -6.58971e-014 1.38652e-014
lhumerus 1.42161 -5.66917 88.8376
lradius 36.9157
lwrist -34.0245
lhand -18.3744 69.832
lfingers 7.12502
lthumb 7.90896 -99.664
rfemur -31.5543 6.72552 20.8635
rtibia 39.9533
rfoot -14.8142 -1.21693
rtoes 8.34156
lfemur -33.5989 4.17138 -15.3678
ltibia 49.5203
lfoot -10.5931 15.0391
ltoes -4.76348
141
root -0.997004 17.8898 8.21674 189.494 15.9946 -178.538
lowerback 36.5776 -2.898 -1.12858
upperback 6.39665 -1.86055 2.85514
thorax -10.9773 -0.0662823 4.27888
lowerneck -12.8252 2.90184 2.1473
upperneck 19.8109 4.32359 -1.45722
head 8.34687 2.2041 -0.349456
rclavicle -1.69961e-014 -2.93207e-015
rhumerus -22.5124 9.96342 -85.8964
rradius 56.4818
rwrist 7.16067
rhand -15.1288 6.2952
rfingers 7.12502
rthumb 11.0405 -23.3944
lclavicle -1.69961e-014 -2.93207e-015
lhumerus 1.02736 -5.13639 89.1918
lradius 37.2896
lwrist -31.5107
lhand -18.2807 70.1732
lfingers 7.12502
lthumb 7.99941 -100.002
rfemur -31.1351 6.85446 21.1393
rtibia 39.9245
rfoot -14.8373 -0.857402
rtoes 8.54712
lfemur -33.7014 4.64315 -15.3106
ltibia 50.3457
lfoot -11.2197 15.305
ltoes -4.1983
142
root -1.00767 17.8938 8.18456 189.419 16.3798 -178.567
lowerback 36.4197 -2.94127 -0.99541
upperback 6.46438 -1.88153 2.75662
thorax -10.8472 -0.083175 4.10553
lowerneck -12.4359 2.93267 2.28953
upperneck 19.5561 4.41358 -1.82505
head 8.20452 2.22414 -0.493967
rclavicle 2.4202e-014 -3.78933e-014
rhumerus -21.8227 10.5317 -86.4366
rradius 56.8281
rwrist 7.27668
rhand -15.4967 7.70709
rfingers 7.12502
rthumb 10.6856 -22.0012
lclavicle 2.4202e-014 -3.78933e-014
lhumerus 0.454005 -5.12765 89.4029
lradius 37.9944
lwrist -28.4278
lhand -18.6137 70.7042
lfingers 7.12502
lthumb 7.67802 -100.545
rfemur -30.9588 6.62207 21.0854
rtibia 39.9412
rfoot -14.9736 -0.334921
rtoes 8.43101
lfemur -34.0204 4.98283 -15.5923
ltibia 51.0416
lfoot -11.7745 15.6392
ltoes -4.41349
143
root -1.02024 17.9017 8.1392 189.365 16.8082 -178.875
lowerback 36.0571 -2.91601 -1.09412
upperback 6.52917 -1.92135 2.66219
thorax -10.6361 -0.110837 4.06439
lowerneck -12.2376 2.87249 2.09665
upperneck 19.5356 4.40953 -1.95944
head 8.16031 2.19955 -0.510259
rclavicle 6.60959e-015 4.07509e-015
rhumerus -21.047 11.1357 -86.924
rradius 57.2357
rwrist 6.99127
rhand -16.0086 8.59559
rfingers 7.12502
rthumb 10.1919 -21.1375
lclavicle 6.60959e-015 4.07509e-015
lhumerus -0.254579 -5.33775 89.6764
lradius 39.0022
lwrist -24.7646
lhand -19.4711 71.2638
lfingers 7.12502
lthumb 6.8504 -101.133
rfemur -30.8126 6.08179 20.7407
rtibia 39.9457
rfoot -15.1665 0.484814
rtoes 8.23757
lfemur -34.2151 5.35527 -16.2468
ltibia 51.557
lfoot -12.2767 15.5785
ltoes -6.15939
144
root -1.02766 17.897 8.11366 189.321 17.2208 -179.01
lowerback 36.0014 -2.79845 -1.28764
upperback 6.51317 -1.84765 2.74572
thorax -10.6312 -0.0779179 4.22827
lowerneck -12.1107 2.72842 1.62692
upperneck 19.6369 4.32124 -1.93604
head 8.15814 2.13156 -0.435091
rclavicle -1.16289e-014 1.82882e-014
rhumerus -20.2248 11.9305 -87.2885
rradius 57.4327
rwrist 6.63515
rhand -16.2662 8.4665
rfingers 7.12502
rthumb 9.94332 -21.2787
lclavicle -1.16289e-014 1.82882e-014
lhumerus -1.19676 -5.36935 90.1711
lradius 40.3262
lwrist -21.2048
lhand -20.4918 71.2523
lfingers 7.12502
lthumb 5.86505 -101.151
rfemur -30.8157 5.81486 20.594
rtibia 40.1001
rfoot -15.2631 0.951711
rtoes 7.8595
lfemur -34.5839 5.84195 -16.65
ltibia 52.0883
lfoot -12.5803 14.9634
ltoes -7.38325
145
root -1.03147 17.8793 8.10631 189.269 17.5764 -178.895
lowerback 35.9253 -2.84644 -1.30343
upperback 6.65786 -1.89276 2.75729
thorax -10.4357 -0.0958524 4.26077
lowerneck -12.0801 2.77973 1.4356
upperneck 19.6524 4.44353 -1.97994
head 8.15696 2.17132 -0.405276
rclavicle 2.41026e-014 3.80673e-014
rhumerus -19.2126 13.0352 -87.896
rradius 57.5201
rwrist 6.06006
rhand -16.7406 8.327
rfingers 7.12502
rthumb 9.48566 -21.4395
lclavicle 2.41026e-014 3.80673e-014
lhumerus -1.88578 -5.29511 90.2815
lradius 41.774
lwrist -17.5608
lhand -21.3709 70.9068
lfingers 7.12502
lthumb 5.01621 -100.827
rfemur -30.8631 5.98948 20.7007
rtibia 40.2997
rfoot -15.267 0.808973
rtoes 7.53849
lfemur -35.1375 6.27416 -16.6982
ltibia 52.6282
lfoot -12.7139 14.2004
ltoes -7.58814
146
root -1.037 17.8624 8.09611 189.189 17.9156 -178.676
lowerback 36.1316 -2.63464 -1.16879
upperback 6.8042 -1.52 2.81184
thorax -10.3791 0.0874382 4.09806
lowerneck -12.571 2.70207 1.97046
upperneck 19.8047 4.32456 -2.5008
head 8.31918 2.09388 -0.671168
rclavicle -1.36167e-014 2.85256e-014
rhumerus -18.2376 13.2792 -88.2339
rradius 57.7982
rwrist 5.18344
rhand -17.007 8.44986
rfingers 7.12502
rthumb 9.22857 -21.3282
lclavicle -1.36167e-014 2.85256e-014
lhumerus -2.37866 -5.91998 90.6029
lradius 43.3002
lwrist -14.4858
lhand -21.9469 70.2922
lfingers 7.12502
lthumb 4.46001 -100.225
rfemur -30.8329 6.22211 20.8926
rtibia 40.5113
rfoot -15.2965 0.758024
rtoes 7.55117
lfemur -35.6183 6.67894 -16.6364
ltibia 53.1114
lfoot -12.9077 13.4503
ltoes -8.00087
147
root -1.04315 17.8515 8.08488 189.124 18.1559 -178.451
lowerback 36.3776 -2.53007 -0.946248
upperback 6.80636 -1.27476 2.8785
thorax -10.4904 0.20378 3.95669
lowerneck -12.7431 2.6162 2.14745
upperneck 20.034 4.23169 -2.72005
head 8.43432 2.04167 -0.779812
rclavicle 6.85807e-015 1.33186e-014
rhumerus -17.4576 13.65 -88.6547
rradius 58.1093
rwrist 4.28056
rhand -16.931 8.7543
rfingers 7.12502
rthumb 9.30196 -21.0205
lclavicle 6.85807e-015 1.33186e-014
lhumerus -3.24787 -6.18655 90.9622
lradius 44.9184
lwrist -11.9933
lhand -22.1465 69.2724
lfingers 7.12502
lthumb 4.2673 -99.2094
rfemur -30.7721 6.32481 21.113
rtibia 40.6947
rfoot -15.3777 0.91486
rtoes 7.90525
lfemur -36.0428 6.96914 -16.5385
ltibia 53.4452
lfoot -13.1811 12.6203
ltoes -8.33816
148
root -1.04876 17.842 8.06756 189.036 18.4277 -178.344
lowerback 36.4403 -2.52787 -0.660176
upperback 6.86596 -1.16372 2.76544
thorax -10.4611 0.253521 3.63754
lowerneck -12.7854 2.49591 2.24544
upperneck 20.1085 4.06798 -2.80302
head 8.46655 1.96452 -0.841075
rclavicle -6.95746e-014 -2.68359e-014
rhumerus -16.4438 13.8713 -89.2572
rradius 58.1533
rwrist 3.95524
rhand -16.9648 9.02781
rfingers 7.12502
rthumb 9.2693 -20.7484
lclavicle -6.95746e-014 -2.68359e-014
lhumerus -4.18234 -6.48884 91.0912
lradius 46.6146
lwrist -9.32877
lhand -21.7072 68.0941
lfingers 7.12502
lthumb 4.69153 -98.0221
rfemur -30.6888 6.40926 21.2024
rtibia 40.8523
rfoot -15.4446 1.26375
rtoes 8.70861
lfemur -36.3856 7.16958 -16.584
ltibia 53.6099
lfoot -13.3479 11.8271
ltoes -9.33412
149
root -1.05486 17.833 8.04513 188.937 18.7129 -178.338
lowerback 36.635 -2.24543 -0.843821
upperback 6.81494 -0.831881 3.04925
thorax -10.6086 0.412693 3.91068
lowerneck -12.7791 2.198 1.81401
upperneck 20.1765 3.77885 -2.88763
head 8.47382 1.79152 -0.829344
rclavicle -9.52179e-014 8.18993e-014
rhumerus -15.5687 14.1577 -89.1914
rradius 58.1407
rwrist 3.75663
rhand -17.1574 9.10776
rfingers 7.12502
rthumb 9.08344 -20.6766
lclavicle -9.52179e-014 8.18993e-014
lhumerus -5.35962 -6.70453 91.8834
lradius 48.3152
lwrist -6.79387
lhand -20.6693 66.9792
lfingers 7.12502
lthumb 5.69363 -96.8828
rfemur -30.6009 6.49829 21.1722
rtibia 40.9796
rfoot -15.5264 1.49211
rtoes 8.93115
lfemur -36.7346 7.33846 -16.7498
ltibia 53.6174
lfoot -13.3354 11.0674
ltoes -10.8694
